# xmcd CD database file
#
# Track frame offsets:
#	150
#	4857
#	13488
#	20588
#	30356
#	41290
#	46629
#	52128
#	55956
#	63216
#	69252
#	75886
#	88865
#	119171
#	132309
#	144447
#	157360
#	171508
#	194215
#	213015
#
# Disc length: 2925 seconds
#
# Revision: 2
# Processed by: cddbd v1.4PL0 Copyright (c) Steve Scherf et al.
# Submitted via: CDex 1.50beta10
#
DISCID=1c0b6b14
DTITLE=Frank Lorentzen and Marianne Mikkelsen - Concert for the Prague Castle
DYEAR=2003
DGENRE=New Age
TTITLE0=Singing the Aum Sound together
TTITLE1=Blue, Orange and Red
TTITLE2=Orange and Indigo
TTITLE3=Green and Red
TTITLE4=Magenta, Yellow and Blue
TTITLE5=Magenta
TTITLE6=Indigo
TTITLE7=Blue
TTITLE8=Green
TTITLE9=Yellow
TTITLE10=Orange
TTITLE11=Red, Blue, Orange and Green
TTITLE12=Crystal Bowls and Tibetian Bowls
TTITLE13=Alpha Red
TTITLE14=Alpha Green
TTITLE15=Alpha Indigo
TTITLE16=Alpha Orange
TTITLE17=Essenia Yellow and Magenta
TTITLE18=Harmonic Blue
TTITLE19=Singing the Aum Sound again
EXTD=YEAR: 2003
EXTT0=
EXTT1=
EXTT2=
EXTT3=
EXTT4=
EXTT5=
EXTT6=
EXTT7=
EXTT8=
EXTT9=
EXTT10=
EXTT11=
EXTT12=
EXTT13=
EXTT14=
EXTT15=
EXTT16=
EXTT17=
EXTT18=
EXTT19=
PLAYORDER=
